PathFileType	4	(X/Y/Z)	Patient4_TMGait_0pt2_01_right_12.trc.trc
DataRate	CameraRate	NumFrames	NumMarkers	Units	OrigDataRate	OrigDataStartFrame	OrigNumFrames
40.579710144928	40.579710144928	5	33	mm	40.579710144928	1	       141
Frame#	Time	Sacral			L.Shoulder			Chest			R.Shoulder			Neck			R.ASIS			L.ASIS			R.Thigh.Superior			R.Thigh.Lateral			R.Thigh.Inferior			R.Patella			L.Thigh.Superior			L.Thigh.Lateral			L.Thigh.Inferior			L.Patella			L.Shank.Superior			L.Shank.Lateral			L.Shank.Inferior			R.Shank.Superior			R.Shank.Lateral			R.Shank.Inferior			R.Heel			R.Midfoot.Superior			R.Midfoot.Lateral			R.Toe			L.Heel			L.Midfoot.Lateral			L.Midfoot.Superior			L.Toe			L.Elbow			L.Wrist			R.Elbow			R.Wrist			
		X1	Y1	Z1	X2	Y2	Z2	X3	Y3	Z3	X4	Y4	Z4	X5	Y5	Z5	X6	Y6	Z6	X7	Y7	Z7	X8	Y8	Z8	X9	Y9	Z9	X10	Y10	Z10	X11	Y11	Z11	X12	Y12	Z12	X13	Y13	Z13	X14	Y14	Z14	X15	Y15	Z15	X16	Y16	Z16	X17	Y17	Z17	X18	Y18	Z18	X19	Y19	Z19	X20	Y20	Z20	X21	Y21	Z21	X22	Y22	Z22	X23	Y23	Z23	X24	Y24	Z24	X25	Y25	Z25	X26	Y26	Z26	X27	Y27	Z27	X28	Y28	Z28	X29	Y29	Z29	X30	Y30	Z30	X31	Y31	Z31	X32	Y32	Z32	X33	Y33	Z33	

1	25.810000000000	810.707507513310	1006.790523896282	443.862439484662	984.661530196241	1430.451266679724	256.538962315063	1095.232601563867	1357.648126025535	410.776645236450	1026.418758390409	1430.118708056498	589.818715146090	975.704130855382	1491.815016922261	414.192917883946	1040.243819894842	931.831040508590	552.753962734971	1019.191348759572	958.332914355432	280.498882796108	1043.906560774149	719.485568794069	533.662126905034	944.519152293379	624.916741719689	600.688385579274	1009.779246859366	555.116781670130	525.836217275336	988.607404310865	458.349234543090	542.446818062009	1079.636470390587	754.322961761289	326.812598594039	1006.559513786790	624.980489113311	267.856680731207	1093.233610480223	557.810494843655	340.185425004520	1098.346874474847	483.467462920129	348.756482772823	1063.011166051984	410.413308841455	342.872892440276	967.046414786238	302.455844983628	290.848389904291	1002.760895836095	189.239825448506	364.865968760056	921.993414118578	387.936727572522	553.066746654262	813.767244229324	326.829541480159	619.398527110417	815.149495032458	217.698611912370	566.847348029921	625.692150007322	103.990565536992	546.825146796793	804.895957028964	105.178358274964	583.951440425195	703.025453549277	70.217553595220	620.196620349990	902.042008107551	36.462989720458	610.165036785605	860.992924446281	40.361439758295	400.489734464542	938.188511941205	37.401479584659	323.477130782785	1021.811892805493	96.571010711580	353.977330486780	1150.041787625008	41.148166816010	329.210883687228	931.962804791531	1083.417172342325	134.837252062710	965.405501477134	823.246109524231	156.041347416911	1156.654900202723	1102.058026056928	695.255086585166	1403.229821765563	1019.197862130461	661.922529540643	
2	25.834642857143	810.233591596173	1004.082597949616	439.162884503559	986.031304168809	1429.278381014927	256.094409175274	1094.903887835706	1355.668096271743	411.050056392994	1023.961291721085	1426.443230725639	589.954017674001	975.394145437122	1489.643400957973	414.106152449436	1039.691409250695	929.777599916733	549.431227401722	1020.276233091361	956.685659178715	277.245200754134	1047.846735565857	718.117181223365	530.195602466395	950.971590724296	622.081207824883	597.483142664785	1017.978137192623	553.143716496373	522.736109738065	998.108319776703	454.745043448593	540.722967237937	1081.286784745401	752.867053514727	324.454834374623	1008.997388579634	622.867801046232	266.160362559301	1095.403034202260	556.213438991437	339.439855451033	1100.550982433818	481.422273133376	348.376533127999	1063.893565473867	408.256650115558	342.611633046502	966.572677843823	301.612446740291	290.434687218289	999.960589843448	188.220457945621	364.929489059440	929.418202528900	385.463875935293	551.716115830044	819.149672312940	328.576015310197	617.962216153485	817.339444366972	219.252206007693	566.544732859457	624.813380414874	112.867634862619	546.937213237372	802.990363555875	106.217168863302	584.362122997730	700.081901365333	75.675827605164	620.231798103427	896.056234360648	36.058358893236	610.123091482073	856.295735487024	40.523573655064	400.456132893991	933.488673034371	37.458922209845	323.501565160126	1017.173142394261	96.471859259232	354.093640180382	1145.335564687248	40.909761032141	329.181731632448	943.543062796064	1081.167430629852	132.824124743737	986.443008915513	822.764205378869	154.350037670166	1137.653731992521	1092.254316210265	695.716987132019	1369.306437054436	983.647733659595	671.584127992600	
3	25.859285714286	809.661873250146	1001.275196382042	434.362948869899	987.553438306618	1428.044192947963	255.694496883920	1094.582163825286	1353.551932618140	411.431888051985	1021.344045037474	1422.573949759195	590.155398373102	975.134632129277	1487.365138263954	414.085433520466	1038.980249977427	927.630182604449	546.086506922884	1021.301085025683	954.934645455064	273.957718389788	1052.272555525448	716.990541889013	526.544701850377	958.389841361360	619.282879126869	594.137955773757	1027.310778091778	551.425794255764	519.445112972948	1008.973217284086	451.268867432928	538.811726314470	1082.871349117255	751.287892831911	321.983709683571	1011.313835826310	620.664851136862	264.376779495652	1097.436228075791	554.511968012659	338.628828638980	1102.600825723011	479.301827568364	347.987319000506	1064.608091462557	406.014377955829	342.328906778506	965.942560222038	300.696898542578	289.967535549459	996.940350791445	187.144923963269	364.973012864038	938.021605964270	383.152293046541	550.162842752929	825.581635367005	330.929964209337	616.326187915101	820.171495895137	221.472991982567	566.079245067529	624.429996241145	123.643655152887	546.790511772494	801.154973544302	107.845906605277	584.623330316894	697.152588538421	82.600076719548	620.043447362544	889.356481681551	35.451117679897	610.031601695512	851.343286753444	40.653934761362	400.399577761676	928.538395756867	37.490687799692	323.500168926711	1012.276891684956	96.359039485055	354.199985160990	1140.383841924225	40.679299689799	329.150566764013	955.738622372088	1079.099137920255	130.506892467994	1009.291704023331	822.998565416804	152.568043506230	1117.069612461262	1082.384033275710	696.086154756169	1331.912386547917	947.819225205179	681.068039971001	
4	25.883928571429	808.966580955104	998.527802053682	429.641744275876	989.254394708447	1426.827037685451	255.384174071976	1094.292163785754	1351.397171843937	411.969441798817	1018.614945622912	1418.689843991074	590.440757129753	974.971662941186	1485.098499991843	414.158969258943	1038.051958438954	925.513280404975	542.897422021544	1022.202795094447	953.167909751160	270.801802275562	1057.117003623778	716.344812375769	522.839375322049	966.749279139662	616.762581423386	590.795817791737	1037.725052738501	550.245795900267	516.089034519627	1021.183267511898	448.243072621621	536.772919007239	1084.252418144797	749.630552820045	319.487343034424	1013.285885027454	618.480469455353	262.564191485270	1099.095702728472	552.766802211581	337.769018057176	1104.241215590097	477.204581614775	347.598807706272	1064.970906500199	403.792895236653	342.022701590797	965.052021559923	299.742879970400	289.446868498766	993.710159694102	186.061489218168	364.985457913635	947.846081948935	381.251429888749	548.432651265323	833.155931315592	334.012511683271	614.495312687922	823.838459832602	224.485585754592	565.408691546895	624.856628143347	136.289704573616	546.261581459989	799.685451666010	110.212786012848	584.658691448138	694.563645605438	91.071298439383	619.545025763156	882.298509009338	34.639221572472	609.896329620952	846.242314132745	40.738365822641	400.315502474242	923.446900504108	37.488600531229	323.464909311740	1007.228189639866	96.235664878715	354.285285124555	1135.296467526868	40.470289257271	329.118083756017	968.307955583957	1077.444040579145	127.885327527033	1033.680555959056	824.362130129278	150.769790057104	1095.180803545648	1073.004617383565	696.286199754513	1291.408204739658	913.422126984674	689.797954997038	
5	25.908571428571	808.119695549274	996.025249010476	425.148605574184	991.176696070137	1425.725127919865	255.205261379026	1094.057917591257	1349.326288627079	412.713905171959	1015.810538561155	1415.000607693731	590.822191017445	974.951688546710	1482.983758824289	414.347018198857	1036.843021732997	923.576572072762	540.031753229114	1022.939718108294	951.497096021907	267.934274515983	1062.268925890699	716.432424914627	519.219882110175	975.949277515082	614.786492066732	587.609318855202	1049.089372829776	549.899163440802	512.815605953764	1034.634817662412	446.008897918573	534.694288736666	1085.290910889694	747.950557552088	317.055096141098	1014.680941872227	616.435466068136	260.780725013662	1100.125837340122	551.046461671056	336.877894818171	1105.193668157142	475.235826429977	347.215576093821	1064.774045763507	401.708394271188	341.687503705892	963.769317461586	298.793541066735	288.873069674469	990.254760820057	185.026191381778	364.957403176058	958.869739951377	380.019043007268	546.577389257708	841.902971526504	337.894557121173	612.488981767848	828.534283070021	228.346182184654	564.507243379014	626.422470112180	150.524425006322	545.242166032298	798.961518456550	113.414438547864	584.409881533283	692.724297008110	100.984152704419	618.668025001499	875.437366530781	33.661159636766	609.738546991098	841.074442374483	40.768119736738	400.202637595103	918.297534449535	37.448772605007	323.391178714576	1002.107928406012	96.107224606809	354.339282020887	1130.156794592545	40.293498289421	329.085006021080	981.091178220101	1076.431847584835	124.978388326323	1059.370942765396	827.273313801217	149.040927986131	1072.238073472596	1064.669278840040	696.239786683387	1248.229846939100	881.999559743003	697.258011667500	
